<?xml version="1.0" encoding="iso-8859-1"?>
<!-- Generator: Adobe Illustrator 19.0.0, SVG Export Plug-In . SVG Version: 6.00 Build 0)  -->
<svg xmlns="http://www.w3.org/2000/svg" xmlns:xlink="http://www.w3.org/1999/xlink" version="1.1" id="Layer_1" x="0px" y="0px" viewBox="0 0 512 512" style="enable-background:new 0 0 512 512;" xml:space="preserve" width="512px" height="512px">
<g>
	<g>
		<g>
			<path d="M490.981,117.785h-91.444V98.814c0-39.533-32.162-71.695-71.694-71.695h-11.481c-4.466,0-8.084,3.618-8.084,8.084     c0,4.466,3.618,8.084,8.084,8.084h11.481c30.617,0,55.526,24.909,55.526,55.527v18.971H367.2V98.814     c0-21.702-17.656-39.358-39.357-39.358H184.157c-21.701,0-39.357,17.656-39.357,39.358v18.971h-16.168V98.814     c0-30.617,24.908-55.527,55.526-55.527h104.18c4.466,0,8.084-3.618,8.084-8.084c0-4.466-3.619-8.084-8.084-8.084h-104.18     c-39.532,0-71.694,32.162-71.694,71.695v18.971H21.019C9.429,117.785,0,127.215,0,138.804v139.048v164.451     c0,23.477,19.101,42.577,42.579,42.577h38.802h81.92h185.398h81.92h38.802c23.478,0,42.579-19.1,42.579-42.577V277.853V138.804     C512,127.216,502.571,117.785,490.981,117.785z M160.968,98.815c0-12.786,10.402-23.19,23.189-23.19h143.687     c12.786,0,23.189,10.403,23.189,23.19v18.971H160.968V98.815z M155.217,468.712H89.465v-10.85c0-2.674,2.176-4.851,4.851-4.851     h56.051c2.674,0,4.851,2.176,4.851,4.851V468.712z M422.535,468.712h-65.752v-10.85c0-2.674,2.176-4.851,4.851-4.851h56.051     c2.674,0,4.851,2.176,4.851,4.851V468.712z M495.832,269.768h-74.554c-4.466,0-8.084,3.618-8.084,8.084     c0,4.466,3.619,8.084,8.084,8.084h74.554v156.367c0,14.562-11.847,26.408-26.411,26.408h-30.718v-10.85     c0-11.59-9.429-21.019-21.019-21.019h-56.051c-11.59,0-21.019,9.429-21.019,21.019v10.85h-169.23v-10.85     c0-11.59-9.429-21.019-21.019-21.019H94.316c-11.59,0-21.019,9.429-21.019,21.019v10.85H42.579     c-14.562,0-26.411-11.846-26.411-26.408V285.937h180.801c16.444,0,20.346,8.387,20.699,15.495v14.76     c0,21.135,17.196,38.33,38.332,38.33c21.135,0,38.331-17.195,38.331-38.33v-14.76c0.351-7.108,4.253-15.495,20.699-15.495h79.3     c4.466,0,8.084-3.619,8.084-8.084s-3.619-8.084-8.084-8.084h-79.3c-26.206,0-36.223,16.084-36.86,31.136     c-0.005,0.113-0.008,0.229-0.008,0.342v14.945c0,12.22-9.943,22.162-22.164,22.162c-12.221,0-22.164-9.943-22.164-22.162v-14.945     c0-0.113-0.003-0.229-0.008-0.342c-0.637-15.052-10.655-31.136-36.86-31.136h-180.8V138.804c0-2.674,2.176-4.851,4.851-4.851     h99.528h32.337h206.231h32.337h99.528c2.674,0,4.851,2.176,4.851,4.851V269.768z" fill="#FFFFFF"/>
			<circle cx="256" cy="315.942" r="8.623" fill="#FFFFFF"/>
			<path d="M290.672,161.775h-69.344c-4.465,0-8.084,3.618-8.084,8.084c0,4.466,3.62,8.084,8.084,8.084h69.344     c4.466,0,8.084-3.618,8.084-8.084C298.756,165.394,295.137,161.775,290.672,161.775z" fill="#FFFFFF"/>
		</g>
	</g>
</g>
<g>
</g>
<g>
</g>
<g>
</g>
<g>
</g>
<g>
</g>
<g>
</g>
<g>
</g>
<g>
</g>
<g>
</g>
<g>
</g>
<g>
</g>
<g>
</g>
<g>
</g>
<g>
</g>
<g>
</g>
</svg>
